<svg xmlns="http://www.w3.org/2000/svg" viewBox="0 9.84000015258789 174.77999877929688 35.400001525878906" data-asc="0.89111328125" width="174.77999877929688" height="35.400001525878906"><defs/><g><g fill="#e6fafe"><g transform="translate(0, 0)"><path d="M9.42 13.26L9.42 26.27L15.45 26.27Q17.53 26.27 18.49 25.35Q19.46 24.44 19.78 21.73L20.68 21.73L20.68 32.93L19.78 32.93Q19.75 31.01 19.27 30.10Q18.80 29.20 17.96 28.75Q17.11 28.30 15.45 28.30L9.42 28.30L9.42 38.70Q9.42 41.21 9.74 42.02Q9.99 42.63 10.77 43.07Q11.84 43.65 13.01 43.65L14.21 43.65L14.21 44.56L0 44.56L0 43.65L1.17 43.65Q3.22 43.65 4.15 42.46Q4.74 41.67 4.74 38.70L4.74 17.31Q4.74 14.79 4.42 13.99Q4.17 13.38 3.42 12.94Q2.37 12.35 1.17 12.35L0 12.35L0 11.45L24.63 11.45L24.95 18.73L24.10 18.73Q23.46 16.41 22.62 15.32Q21.78 14.23 20.54 13.75Q19.31 13.26 16.72 13.26L9.42 13.26ZM41.24 41.33Q37.79 43.99 36.91 44.41Q35.60 45.02 34.11 45.02Q31.79 45.02 30.29 43.43Q28.78 41.85 28.78 39.26Q28.78 37.62 29.52 36.43Q30.52 34.77 33.00 33.30Q35.47 31.84 41.24 29.74L41.24 28.86Q41.24 25.51 40.17 24.27Q39.11 23.02 37.08 23.02Q35.55 23.02 34.64 23.85Q33.72 24.68 33.72 25.76L33.76 27.17Q33.76 28.30 33.19 28.91Q32.62 29.52 31.69 29.52Q30.79 29.52 30.21 28.88Q29.64 28.25 29.64 27.15Q29.64 25.05 31.79 23.29Q33.94 21.53 37.82 21.53Q40.80 21.53 42.70 22.53Q44.14 23.29 44.82 24.90Q45.26 25.95 45.26 29.20L45.26 36.79Q45.26 39.99 45.39 40.71Q45.51 41.43 45.79 41.67Q46.07 41.92 46.44 41.92Q46.83 41.92 47.12 41.75Q47.63 41.43 49.10 39.97L49.10 41.33Q46.36 45.00 43.87 45.00Q42.68 45.00 41.97 44.17Q41.26 43.33 41.24 41.33M41.24 39.75L41.24 31.23Q37.55 32.69 36.47 33.30Q34.55 34.38 33.72 35.55Q32.89 36.72 32.89 38.11Q32.89 39.87 33.94 41.03Q34.99 42.19 36.35 42.19Q38.21 42.19 41.24 39.75ZM56.88 26.05Q60.13 21.53 63.89 21.53Q67.33 21.53 69.90 24.48Q72.46 27.42 72.46 32.52Q72.46 38.48 68.51 42.11Q65.11 45.24 60.94 45.24Q58.98 45.24 56.97 44.53Q54.96 43.82 52.86 42.41L52.86 19.24Q52.86 15.43 52.67 14.55Q52.49 13.67 52.10 13.35Q51.71 13.04 51.12 13.04Q50.44 13.04 49.41 13.43L49.07 12.57L55.79 9.84L56.88 9.84L56.88 26.05M56.88 27.61L56.88 40.99Q58.13 42.21 59.46 42.83Q60.79 43.46 62.18 43.46Q64.40 43.46 66.32 41.02Q68.24 38.57 68.24 33.91Q68.24 29.61 66.32 27.31Q64.40 25 61.96 25Q60.67 25 59.38 25.66Q58.40 26.15 56.88 27.61ZM82.30 21.53L82.30 26.56Q85.11 21.53 88.06 21.53Q89.40 21.53 90.28 22.35Q91.16 23.17 91.16 24.24Q91.16 25.20 90.53 25.85Q89.89 26.51 89.01 26.51Q88.16 26.51 87.10 25.67Q86.04 24.83 85.52 24.83Q85.08 24.83 84.57 25.32Q83.47 26.32 82.30 28.61L82.30 39.33Q82.30 41.19 82.76 42.14Q83.08 42.80 83.89 43.24Q84.69 43.68 86.21 43.68L86.21 44.56L74.76 44.56L74.76 43.68Q76.46 43.68 77.29 43.14Q77.91 42.75 78.15 41.89Q78.27 41.48 78.27 39.53L78.27 30.86Q78.27 26.95 78.11 26.21Q77.95 25.46 77.53 25.12Q77.10 24.78 76.46 24.78Q75.71 24.78 74.76 25.15L74.51 24.27L81.27 21.53L82.30 21.53ZM98.10 9.84Q99.12 9.84 99.84 10.56Q100.56 11.28 100.56 12.30Q100.56 13.33 99.84 14.06Q99.12 14.79 98.10 14.79Q97.07 14.79 96.34 14.06Q95.61 13.33 95.61 12.30Q95.61 11.28 96.33 10.56Q97.05 9.84 98.10 9.84M100.12 21.53L100.12 39.50Q100.12 41.60 100.43 42.30Q100.73 42.99 101.33 43.33Q101.93 43.68 103.52 43.68L103.52 44.56L92.65 44.56L92.65 43.68Q94.29 43.68 94.85 43.36Q95.41 43.04 95.74 42.31Q96.07 41.58 96.07 39.50L96.07 30.88Q96.07 27.25 95.85 26.17Q95.68 25.39 95.31 25.09Q94.95 24.78 94.31 24.78Q93.63 24.78 92.65 25.15L92.31 24.27L99.05 21.53L100.12 21.53ZM125.73 37.70L125.46 44.56L105.74 44.56L105.74 43.68L120.58 23.90L113.26 23.90Q110.89 23.90 110.16 24.21Q109.42 24.51 108.96 25.37Q108.30 26.59 108.20 28.39L107.23 28.39L107.37 22.19L126.12 22.19L126.12 23.10L111.13 42.92L119.29 42.92Q121.85 42.92 122.77 42.49Q123.68 42.07 124.24 40.99Q124.63 40.21 124.90 37.70L125.73 37.70ZM134.18 9.84Q135.21 9.84 135.93 10.56Q136.65 11.28 136.65 12.30Q136.65 13.33 135.93 14.06Q135.21 14.79 134.18 14.79Q133.15 14.79 132.42 14.06Q131.69 13.33 131.69 12.30Q131.69 11.28 132.41 10.56Q133.13 9.84 134.18 9.84M136.21 21.53L136.21 39.50Q136.21 41.60 136.51 42.30Q136.82 42.99 137.41 43.33Q138.01 43.68 139.60 43.68L139.60 44.56L128.74 44.56L128.74 43.68Q130.37 43.68 130.93 43.36Q131.49 43.04 131.82 42.31Q132.15 41.58 132.15 39.50L132.15 30.88Q132.15 27.25 131.93 26.17Q131.76 25.39 131.40 25.09Q131.03 24.78 130.40 24.78Q129.71 24.78 128.74 25.15L128.39 24.27L135.13 21.53L136.21 21.53ZM153.32 21.53Q158.40 21.53 161.47 25.39Q164.09 28.69 164.09 32.96Q164.09 35.96 162.65 39.04Q161.21 42.11 158.68 43.68Q156.15 45.24 153.05 45.24Q148.00 45.24 145.02 41.21Q142.50 37.82 142.50 33.59Q142.50 30.52 144.03 27.48Q145.56 24.44 148.05 22.99Q150.54 21.53 153.32 21.53M152.56 23.12Q151.27 23.12 149.96 23.89Q148.66 24.66 147.85 26.59Q147.05 28.52 147.05 31.54Q147.05 36.43 148.99 39.97Q150.93 43.51 154.10 43.51Q156.47 43.51 158.01 41.55Q159.55 39.60 159.55 34.84Q159.55 28.88 156.98 25.46Q155.25 23.12 152.56 23.12ZM172.07 39.82Q173.22 39.82 174.00 40.61Q174.78 41.41 174.78 42.53Q174.78 43.65 173.99 44.45Q173.19 45.24 172.07 45.24Q170.95 45.24 170.15 44.45Q169.36 43.65 169.36 42.53Q169.36 41.38 170.15 40.60Q170.95 39.82 172.07 39.82Z"/></g></g></g></svg>